<?xml version="1.0" standalone="no"?>
<!DOCTYPE svg PUBLIC "-//W3C//DTD SVG 20010904//EN"
 "http://www.w3.org/TR/2001/REC-SVG-20010904/DTD/svg10.dtd">
<svg version="1.0" xmlns="http://www.w3.org/2000/svg"
 width="262.000000pt" height="53.000000pt" viewBox="0 0 262.000000 53.000000"
 preserveAspectRatio="xMidYMid meet">
<metadata>
Created by potrace 1.15, written by Peter Selinger 2001-2017
</metadata>
<g transform="translate(0.000000,53.000000) scale(0.100000,-0.100000)"
fill="#000000" stroke="none">
<path d="M640 265 c0 -229 2 -265 15 -265 13 0 15 36 15 265 0 229 -2 265 -15
265 -13 0 -15 -36 -15 -265z"/>
<path d="M2 509 c2 -8 23 -27 46 -44 48 -35 51 -47 16 -70 -34 -22 -52 -7 -57
48 -3 36 -4 34 -5 -15 -2 -56 -1 -57 44 -94 l46 -38 -24 -18 c-34 -27 -52 -19
-59 27 -6 39 -6 39 -8 -12 -1 -50 1 -53 44 -89 25 -20 45 -39 45 -43 0 -4 -13
-14 -29 -24 -35 -20 -47 -10 -54 43 -3 31 -4 30 -5 -11 -2 -49 3 -56 96 -127
l42 -33 0 45 c0 53 29 108 66 125 15 6 28 10 30 8 2 -2 -16 -27 -41 -56 -31
-36 -45 -62 -45 -82 0 -16 5 -29 10 -29 6 0 10 4 10 8 0 4 15 16 33 26 45 26
87 67 87 85 1 9 7 1 15 -16 8 -18 18 -33 22 -33 4 0 32 -18 61 -40 l52 -40 1
48 c1 61 23 97 79 130 l45 27 -23 -33 c-13 -18 -39 -45 -58 -60 -29 -23 -34
-33 -34 -71 0 -38 2 -42 13 -29 6 8 33 30 59 47 26 17 52 40 57 49 8 15 14
402 6 402 -3 0 -67 -56 -110 -95 -30 -29 -34 -29 -44 -13 -6 10 -30 30 -54 44
-23 14 -50 36 -59 48 -13 15 -21 18 -31 11 -63 -44 -129 -99 -133 -109 -3 -9
-16 -3 -38 18 -57 54 -119 100 -114 85z"/>
<path d="M710 453 c0 -7 4 -13 9 -13 5 0 11 -17 15 -37 10 -63 26 -113 37
-113 5 0 13 10 18 23 5 12 15 38 23 57 l15 35 20 -55 c12 -30 26 -55 33 -55 7
0 21 31 32 70 11 39 23 72 29 73 21 8 7 29 -21 30 -28 1 -43 -21 -22 -30 5 -1
3 -23 -3 -48 l-11 -45 -20 59 c-11 33 -25 61 -30 63 -5 2 -18 -22 -29 -52 -10
-31 -22 -52 -26 -48 -13 15 -21 73 -10 73 6 0 11 6 11 14 0 10 -11 14 -35 13
-22 -1 -35 -6 -35 -14z"/>
<path d="M1148 463 c-19 -5 -25 -23 -8 -23 6 0 10 -28 10 -65 0 -36 -4 -65 -9
-65 -5 0 -8 8 -7 18 0 10 -12 23 -31 32 -37 17 -42 30 -13 30 11 0 20 -4 20
-10 0 -5 5 -10 10 -10 6 0 10 9 10 20 0 15 -7 20 -29 20 -31 0 -64 -25 -58
-44 2 -6 18 -17 35 -25 18 -8 32 -18 32 -23 0 -14 -38 -8 -44 7 -3 8 -10 15
-16 15 -5 0 -10 -7 -10 -15 0 -8 -3 -15 -7 -15 -5 0 -8 19 -8 41 0 27 -6 45
-16 52 -21 13 -69 1 -69 -18 0 -17 16 -20 25 -5 3 5 13 6 22 3 12 -5 8 -10
-18 -22 -25 -12 -34 -23 -34 -41 l0 -25 133 -2 c80 -2 132 1 132 7 0 6 -5 10
-11 10 -6 0 -9 14 -7 33 2 24 8 32 23 32 17 0 20 -6 19 -42 l-1 -43 89 0 c52
0 88 4 88 10 0 6 -5 10 -11 10 -6 0 -9 14 -7 33 2 24 8 32 23 32 17 0 20 -7
20 -43 0 -36 3 -42 21 -42 20 0 21 4 16 48 -7 65 -15 73 -74 68 -51 -5 -73
-15 -50 -23 18 -7 16 -73 -3 -73 -11 0 -15 12 -15 50 0 51 -9 61 -40 39 -11
-8 -12 -12 -2 -16 18 -7 16 -73 -3 -73 -11 0 -15 11 -15 39 0 45 -19 65 -56
58 -25 -4 -26 -3 -21 29 6 35 3 37 -35 27z"/>
<path d="M1626 437 c-12 -9 -16 -19 -11 -27 6 -10 -3 -12 -44 -6 -61 8 -91 -5
-91 -39 0 -14 5 -25 11 -25 6 0 7 -5 2 -12 -4 -7 -8 -17 -8 -23 -1 -5 -5 -18
-9 -28 -21 -46 78 -69 108 -25 9 12 16 26 16 30 0 16 -33 38 -58 39 l-27 1 25
7 c14 4 29 17 35 29 5 12 18 22 28 22 13 0 16 -5 11 -24 -9 -38 4 -66 31 -66
13 0 26 4 30 9 3 6 16 4 31 -4 14 -7 34 -10 45 -8 27 7 53 48 46 73 -3 11 -1
20 4 20 5 0 9 -16 9 -35 0 -19 -4 -35 -10 -35 -5 0 -10 -4 -10 -10 0 -5 16
-10 35 -10 19 0 35 5 35 10 0 6 -5 10 -11 10 -6 0 -9 14 -7 33 2 24 8 33 26
35 20 3 22 -1 22 -42 0 -42 2 -46 25 -46 14 0 25 5 25 10 0 6 -4 10 -10 10 -5
0 -10 17 -10 39 0 51 -16 62 -76 55 -57 -6 -59 -6 -100 2 -26 5 -35 1 -53 -22
-12 -15 -19 -35 -16 -44 3 -10 -1 -20 -9 -23 -10 -4 -15 4 -18 29 -3 28 -1 34
14 34 10 0 18 5 18 10 0 6 -6 10 -14 10 -8 0 -16 11 -18 26 -3 23 -5 24 -22
11z"/>
<path d="M2143 443 c-7 -3 -13 -13 -13 -23 0 -10 -6 -21 -12 -24 -10 -5 -10
-7 0 -12 7 -3 12 -24 12 -49 l0 -43 85 1 c47 0 85 4 85 9 0 4 -4 8 -9 8 -5 0
-7 9 -4 20 8 31 -5 68 -27 75 -27 9 -60 -3 -60 -21 0 -17 12 -18 27 -3 7 7 13
7 17 1 3 -5 -8 -15 -24 -22 -17 -7 -30 -18 -30 -25 0 -7 -7 -15 -15 -19 -12
-4 -15 3 -15 29 0 24 5 35 15 35 8 0 15 5 15 10 0 6 -6 10 -14 10 -8 0 -16 11
-18 23 -2 14 -8 22 -15 20z"/>
<path d="M2365 209 c-4 -6 -4 -13 -1 -16 3 -3 0 -13 -7 -21 -8 -10 -9 -16 -1
-19 6 -2 8 -17 6 -35 -6 -38 20 -63 48 -48 12 6 29 6 48 -1 22 -7 37 -7 51 1
12 6 21 7 21 3 0 -5 18 -8 40 -8 26 0 40 4 40 12 0 7 -7 13 -15 13 -10 0 -15
10 -15 30 0 23 4 30 20 30 13 0 20 7 20 20 0 23 -10 26 -28 8 -8 -8 -12 -9
-12 -1 0 7 -10 9 -27 4 -16 -4 -40 -3 -55 3 -23 9 -31 6 -53 -14 -19 -18 -25
-32 -23 -52 3 -19 0 -28 -9 -28 -19 0 -17 59 2 66 8 4 15 10 15 15 0 5 -7 9
-15 9 -8 0 -15 9 -15 20 0 21 -24 27 -35 9z"/>
<path d="M1287 179 c-10 -6 -22 -22 -28 -36 -18 -48 36 -97 81 -73 11 6 20 7
20 2 0 -4 16 -8 35 -8 22 0 35 5 35 13 0 7 -5 13 -11 13 -18 0 -6 64 14 68 14
3 17 -4 17 -45 0 -44 2 -48 25 -49 15 -1 25 3 25 12 0 8 -4 14 -10 14 -5 0
-10 17 -10 39 0 50 -15 62 -71 54 -52 -6 -57 -6 -84 1 -11 3 -28 1 -38 -5z"/>
<path d="M2126 166 c-32 -31 -33 -50 -1 -81 27 -28 37 -30 66 -15 10 6 19 7
19 2 0 -4 16 -8 35 -8 22 0 35 5 35 13 0 7 -5 13 -11 13 -18 0 -6 64 14 68 14
3 17 -4 17 -41 0 -40 3 -45 25 -49 17 -4 25 -1 25 8 0 8 -4 14 -10 14 -5 0
-10 17 -10 39 0 50 -15 62 -71 54 -53 -6 -58 -6 -86 2 -16 5 -29 0 -47 -19z"/>
</g>
</svg>
